# xmcd
#
# Track frame offsets: 
#        183
#        2335
#        17018
#        41215
#        59503
#        71153
#        97600
#        121348
#        136083
#        151470
#        175403
#
# Disc length: 2584 seconds
#
# Revision: 2
# Processed by: cddbd v1.4PL0 Copyright (c) Steve Scherf et al.
# Submitted via: ExactAudioCopy v0.95a3
#
DISCID=880a160b
DTITLE=James Brown - Greatest Hits Live
DYEAR=1990
DGENRE=
TTITLE0=Show Intro
TTITLE1=Papa's Got A Brand New Bag
TTITLE2=How Do You Stop
TTITLE3=Cold Sweat
TTITLE4=Out Of Sight
TTITLE5=When A Man Loves A Woman
TTITLE6=Gimme Your Love
TTITLE7=I'll Go Crazy
TTITLE8=I Got You (I Feel Good)
TTITLE9=Try Me
TTITLE10=Living In America
EXTD=
EXTT0=
EXTT1=
EXTT2=
EXTT3=
EXTT4=
EXTT5=
EXTT6=
EXTT7=
EXTT8=
EXTT9=
EXTT10=
PLAYORDER=
